HIERARCHY
ROOT Hips
{
  OFFSET 5.84602e-005 68.8428 3.50346
  CHANNELS 6 Xposition Yposition Zposition Zrotation Xrotation Yrotation
  JOINT Spine
  {
    OFFSET 0 8.597 -4.6522
    CHANNELS 3 Zrotation Xrotation Yrotation
    JOINT Spine1
    {
      OFFSET 0 7.8454 0.4098
      CHANNELS 3 Zrotation Xrotation Yrotation
      JOINT Spine2
      {
        OFFSET 0 9.7078 -2.1609
        CHANNELS 3 Zrotation Xrotation Yrotation
        JOINT Neck
        {
          OFFSET 0 21.8761 -0.4549
          CHANNELS 3 Zrotation Xrotation Yrotation
          JOINT Head
          {
            OFFSET 0 12.3537 3.3602
            CHANNELS 3 Zrotation Xrotation Yrotation
            End Site
            {
              OFFSET 0.0001 18.9506 0.5657
            }
          }
        }
        JOINT LeftShoulder
        {
          OFFSET 2.2086 21.1115 7.2329
          CHANNELS 3 Zrotation Xrotation Yrotation
          JOINT LeftArm
          {
            OFFSET 13.1193 3.0282 -4.8998
            CHANNELS 3 Zrotation Xrotation Yrotation
            JOINT LeftForeArm
            {
              OFFSET 27.4081 -0.0973053 -0.2375
              CHANNELS 3 Zrotation Xrotation Yrotation
              JOINT LeftHand
              {
                OFFSET 22.8641 0.0662994 -0.1369
                CHANNELS 3 Zrotation Xrotation Yrotation
                JOINT LeftHandIndex1
                {
                  OFFSET 8.8614 0.775009 2.4612
                  CHANNELS 3 Zrotation Xrotation Yrotation
                  JOINT LeftHandIndex2
                  {
                    OFFSET 3.3146 -0.808304 0.5841
                    CHANNELS 3 Zrotation Xrotation Yrotation
                    JOINT LeftHandIndex3
                    {
                      OFFSET 2.2628 -0.552002 0.3989
                      CHANNELS 3 Zrotation Xrotation Yrotation
                      End Site
                      {
                        OFFSET 1.6102 -0.4807 0.2612
                      }
                    }
                  }
                }
                JOINT LeftHandMiddle1
                {
                  OFFSET 8.9937 0.895004 0.2143
                  CHANNELS 3 Zrotation Xrotation Yrotation
                  JOINT LeftHandMiddle2
                  {
                    OFFSET 4.0984 0.0113983 -0.0242
                    CHANNELS 3 Zrotation Xrotation Yrotation
                    JOINT LeftHandMiddle3
                    {
                      OFFSET 2.2716 0.00689697 -0.0138001
                      CHANNELS 3 Zrotation Xrotation Yrotation
                      End Site
                      {
                        OFFSET 2.0404 -0.1441 0.0027
                      }
                    }
                  }
                }
                JOINT LeftHandRing1
                {
                  OFFSET 8.5234 0.597198 -2.0164
                  CHANNELS 3 Zrotation Xrotation Yrotation
                  JOINT LeftHandRing2
                  {
                    OFFSET 3.7188 -0.188293 -0.2328
                    CHANNELS 3 Zrotation Xrotation Yrotation
                    JOINT LeftHandRing3
                    {
                      OFFSET 2.1191 -0.106598 -0.1332
                      CHANNELS 3 Zrotation Xrotation Yrotation
                      End Site
                      {
                        OFFSET 1.8737 -0.2304 -0.0886
                      }
                    }
                  }
                }
                JOINT LeftHandPinky1
                {
                  OFFSET 7.9094 -0.601089 -3.4825
                  CHANNELS 3 Zrotation Xrotation Yrotation
                  JOINT LeftHandPinky2
                  {
                    OFFSET 2.2874 -0.477005 -0.6314
                    CHANNELS 3 Zrotation Xrotation Yrotation
                    JOINT LeftHandPinky3
                    {
                      OFFSET 1.6774 -0.349396 -0.4633
                      CHANNELS 3 Zrotation Xrotation Yrotation
                      End Site
                      {
                        OFFSET 1.4888 -0.4091 -0.3416
                      }
                    }
                  }
                }
                JOINT LeftHandThumb1
                {
                  OFFSET 1.833 -1.3875 1.3896
                  CHANNELS 3 Zrotation Xrotation Yrotation
                  JOINT LeftHandThumb2
                  {
                    OFFSET 3.4129 -1.121 2.5732
                    CHANNELS 3 Zrotation Xrotation Yrotation
                    JOINT LeftHandThumb3
                    {
                      OFFSET 2.2474 -0.804199 1.6192
                      CHANNELS 3 Zrotation Xrotation Yrotation
                      End Site
                      {
                        OFFSET 1.6527 -0.5689 1.1317
                      }
                    }
                  }
                }
              }
            }
          }
        }
        JOINT RightShoulder
        {
          OFFSET -2.2086 21.1115 7.2329
          CHANNELS 3 Zrotation Xrotation Yrotation
          JOINT RightArm
          {
            OFFSET -13.1216 3.0287 -4.9007
            CHANNELS 3 Zrotation Xrotation Yrotation
            JOINT RightForeArm
            {
              OFFSET -27.4081 -0.0973053 -0.2375
              CHANNELS 3 Zrotation Xrotation Yrotation
              JOINT RightHand
              {
                OFFSET -22.8641 0.0664063 -0.1369
                CHANNELS 3 Zrotation Xrotation Yrotation
                JOINT RightHandIndex1
                {
                  OFFSET -8.8614 0.774994 2.4612
                  CHANNELS 3 Zrotation Xrotation Yrotation
                  JOINT RightHandIndex2
                  {
                    OFFSET -3.3146 -0.808304 0.5841
                    CHANNELS 3 Zrotation Xrotation Yrotation
                    JOINT RightHandIndex3
                    {
                      OFFSET -2.2628 -0.552002 0.3989
                      CHANNELS 3 Zrotation Xrotation Yrotation
                      End Site
                      {
                        OFFSET -1.6102 -0.4807 0.2612
                      }
                    }
                  }
                }
                JOINT RightHandMiddle1
                {
                  OFFSET -8.9937 0.894989 0.2143
                  CHANNELS 3 Zrotation Xrotation Yrotation
                  JOINT RightHandMiddle2
                  {
                    OFFSET -4.0984 0.0113983 -0.0242
                    CHANNELS 3 Zrotation Xrotation Yrotation
                    JOINT RightHandMiddle3
                    {
                      OFFSET -2.2716 0.00691223 -0.0138001
                      CHANNELS 3 Zrotation Xrotation Yrotation
                      End Site
                      {
                        OFFSET -2.0404 -0.1441 0.0027
                      }
                    }
                  }
                }
                JOINT RightHandRing1
                {
                  OFFSET -8.5234 0.597198 -2.0164
                  CHANNELS 3 Zrotation Xrotation Yrotation
                  JOINT RightHandRing2
                  {
                    OFFSET -3.7188 -0.188309 -0.2328
                    CHANNELS 3 Zrotation Xrotation Yrotation
                    JOINT RightHandRing3
                    {
                      OFFSET -2.1191 -0.106598 -0.1332
                      CHANNELS 3 Zrotation Xrotation Yrotation
                      End Site
                      {
                        OFFSET -1.8737 -0.2304 -0.0886
                      }
                    }
                  }
                }
                JOINT RightHandPinky1
                {
                  OFFSET -7.9094 -0.601105 -3.4825
                  CHANNELS 3 Zrotation Xrotation Yrotation
                  JOINT RightHandPinky2
                  {
                    OFFSET -2.2874 -0.477005 -0.6314
                    CHANNELS 3 Zrotation Xrotation Yrotation
                    JOINT RightHandPinky3
                    {
                      OFFSET -1.6774 -0.349396 -0.4633
                      CHANNELS 3 Zrotation Xrotation Yrotation
                      End Site
                      {
                        OFFSET -1.4888 -0.4091 -0.3416
                      }
                    }
                  }
                }
                JOINT RightHandThumb1
                {
                  OFFSET -1.833 -1.38751 1.3896
                  CHANNELS 3 Zrotation Xrotation Yrotation
                  JOINT RightHandThumb2
                  {
                    OFFSET -3.41299 -1.12099 2.5732
                    CHANNELS 3 Zrotation Xrotation Yrotation
                    JOINT RightHandThumb3
                    {
                      OFFSET -2.24741 -0.804108 1.6192
                      CHANNELS 3 Zrotation Xrotation Yrotation
                      End Site
                      {
                        OFFSET -1.6527 -0.5689 1.1317
                      }
                    }
                  }
                }
              }
            }
          }
        }
      }
    }
  }
  JOINT RightUpLeg
  {
    OFFSET -9.1966 3.8861 -0.7581
    CHANNELS 3 Zrotation Xrotation Yrotation
    JOINT RightLeg
    {
      OFFSET -0.7359 -41.0265 0
      CHANNELS 3 Zrotation Xrotation Yrotation
      JOINT RightFoot
      {
        OFFSET 0 -40.2855 0
        CHANNELS 3 Zrotation Xrotation Yrotation
        JOINT RightToeBase
        {
          OFFSET 0 -5.6122 11.7359
          CHANNELS 3 Zrotation Xrotation Yrotation
          End Site
          {
            OFFSET 0 0 7.8731
          }
        }
      }
    }
  }
  JOINT LeftUpLeg
  {
    OFFSET 9.1965 3.8864 -0.7581
    CHANNELS 3 Zrotation Xrotation Yrotation
    JOINT LeftLeg
    {
      OFFSET 0.7359 -41.0268 0
      CHANNELS 3 Zrotation Xrotation Yrotation
      JOINT LeftFoot
      {
        OFFSET 0 -40.2855 0
        CHANNELS 3 Zrotation Xrotation Yrotation
        JOINT LeftToeBase
        {
          OFFSET 0 -5.6122 11.7359
          CHANNELS 3 Zrotation Xrotation Yrotation
          End Site
          {
            OFFSET 0 0 7.8731
          }
        }
      }
    }
  }
}
MOTION
Frames:	6
Frame Time:	0.0333333
5.84602e-005 68.8428 3.50346 0 0 -0 0 0 -0 0 0 -0 0 0 -0 0 0 -0 0 0 -0 0 0 -0 0 0 -0 0 0 -0 0 0 -0 0 0 -0 0 0 -0 0 0 -0 0 0 -0 -0.0146107 -8.87603e-005 -2.63497e-007 2.99804e-018 -2.42657e-020 -1.42182e-022 0 0 -0 -0.0187562 -0.001176 5.858e-005 5.06224e-018 3.88251e-019 1.21329e-020 0 0 -0 -0.012269 -0.00324817 0.000675346 -1.74678e-018 3.88251e-019 -0 0 0 -0 0 0 -0 0 0 -0 0 0 -0 0 0 -0 0 0 -0 0 0 -0 0 0 -0 0 0 -0 0 0 -0 0 0 -0 0.0149955 -9.10982e-005 2.64101e-007 -9.69331e-018 1.21329e-020 -4.7394e-023 0 0 -0 0.0189956 -0.00119102 -5.96516e-005 -5.41541e-019 0 2.42657e-020 0 0 -0 0.0122698 -0.00324857 -0.000673756 -2.00796e-019 0 -1.94126e-019 0 0 -0 0 0 -0 0 0 -0 3.39842 1.33031 -0.0637918 -5.65207e-008 0.834868 -0.000436188 -3.39935 -2.16518 -0.0642563 -8.89002e-024 -1.18485e-023 -1.48106e-024 -3.39844 1.35642 0.0640283 -3.18788e-007 0.782166 -0.000588827 3.39931 -2.13858 0.0634662 1.1399e-023 0 -0 
0.0196258 39.7074 6.39242 -0 -32.9638 -0 -6.34491e-015 -2.67391e-006 -9.78384e-015 -1.79252e-022 -3.87562e-006 -6.05848e-022 3.03241e-023 3.27477e-006 -8.97212e-024 -0.0369505 6.2957 9.99006e-008 0.00134934 -0.366026 -0.0183221 -0.0369503 3.27477e-006 1.81332e-009 5.57638 -22.2238 -0.00135195 0.113214 -8.6608 -14.936 5.55488 1.54927e-005 -2.06395e-007 -1.07954e-006 3.5651e-006 5.71959e-007 -1.78255e-006 -5.39768e-007 -2.8482e-006 -9.16523e-007 1.98831e-006 -7.60219e-007 -1.07954e-006 3.5651e-006 5.71959e-007 -0.014651 -7.90651e-005 -2.36233e-006 -9.17742e-007 1.9884e-006 -7.59965e-007 -1.07954e-006 3.5651e-006 5.71959e-007 -0.0187933 -0.00117918 5.86986e-005 -1.52423e-006 3.43024e-006 -1.39516e-007 -1.07954e-006 3.5651e-006 5.71959e-007 -0.0122573 -0.00324179 0.000670843 -1.52454e-006 3.43035e-006 -1.39715e-007 -1.07954e-006 3.5651e-006 5.71959e-007 -1.78255e-006 -5.39768e-007 -2.8482e-006 -9.16523e-007 1.98831e-006 -7.60219e-007 -0.03695 -5.52272e-007 11.1106 -19.5225 -22.1271 -5.59964 6.80811 -3.51455 49.102 -6.36111e-015 3.18055e-015 -3.97569e-015 1.48063e-006 -1.10649e-007 -1.21315e-006 -9.54166e-015 3.18055e-015 -7.15625e-015 -1.48063e-006 1.10649e-007 1.21315e-006 1.48063e-006 -1.10649e-007 -1.21315e-006 0.0149844 -9.2017e-005 2.05909e-006 -6.36111e-015 3.18055e-015 2.38542e-015 1.48063e-006 -1.10649e-007 -1.21315e-006 0.01903 -0.001194 -5.77483e-005 3.18055e-015 3.18055e-015 3.18055e-015 1.48063e-006 -1.10649e-007 -1.21315e-006 0.012309 -0.0032583 -0.000677585 6.36111e-015 -6.36111e-015 1.59028e-015 1.48063e-006 -1.10649e-007 -1.21315e-006 -9.54166e-015 3.18055e-015 -7.15625e-015 -1.48063e-006 1.10649e-007 1.21315e-006 4.18674 -0.512922 0.101809 7.35052e-008 1.4241 -0.178542 -0.294849 8.59482 -1.40708 1.0818e-008 1.83244e-009 5.22206e-008 -7.44945 1.2241 0.0686805 -1.50583e-006 1.47539 0.250905 3.38495 5.06296 -0.149697 -6.52107e-008 3.33439e-006 9.85825e-009 
0.0460224 11.7089 7.17921 -0 -65.9276 -0 0 0 -0 0 0 -0 0 0 -0 -0.0739005 12.5904 -1.27569e-009 0.00246456 -0.732033 -0.0366464 -0.0739005 3.12153e-007 2.03863e-009 11.1513 -44.4475 -0.00350751 -4.22597 -15.5276 -30.7604 11.1098 -4.90096e-006 -1.00486e-005 3.18055e-015 0 -4.77083e-015 9.54166e-015 0 4.77083e-015 9.54166e-015 -6.36111e-015 -6.36111e-015 3.18055e-015 0 -4.77083e-015 -0.0145841 -9.28786e-005 -2.87496e-006 -1.27222e-014 -3.18055e-015 1.59028e-015 3.18055e-015 0 -4.77083e-015 -0.0187538 -0.00117472 6.07074e-005 0 6.36111e-015 -0 3.18055e-015 0 -4.77083e-015 -0.0123595 -0.00327365 0.000682672 -3.18055e-015 6.36111e-015 6.36111e-015 3.18055e-015 0 -4.77083e-015 9.54166e-015 0 4.77083e-015 9.54166e-015 -6.36111e-015 -6.36111e-015 -0.0738974 -4.2322e-006 22.2213 -44.8297 -43.5346 -14.3796 16.1371 1.47497 97.8183 3.6737e-006 3.8466e-006 1.15814e-005 -5.64712e-007 4.76612e-006 4.7535e-006 -1.89906e-007 -1.05689e-006 4.55112e-006 -5.64711e-007 4.76612e-006 4.7535e-006 -5.64712e-007 4.76612e-006 4.7535e-006 0.0149417 -8.50394e-005 7.89239e-006 -8.16527e-007 2.76396e-006 2.67625e-006 -5.64712e-007 4.76612e-006 4.7535e-006 0.0189272 -0.0011851 -5.12069e-005 -8.16388e-007 2.76402e-006 2.67616e-006 -5.64712e-007 4.76612e-006 4.7535e-006 0.0123009 -0.00325416 -0.000675754 -8.16545e-007 2.7638e-006 2.67632e-006 -5.64712e-007 4.76612e-006 4.7535e-006 -1.89906e-007 -1.05689e-006 4.55112e-006 -5.64711e-007 4.76612e-006 4.7535e-006 4.98814 -2.92819 0.275801 6.6162e-007 3.18563 -0.314367 3.35616 18.769 -2.83216 9.69862e-008 8.4897e-007 -1.32192e-007 -11.5104 0.748713 0.0699669 -1.26691e-006 2.83622 0.514223 3.42975 11.94 -0.35877 1.11637e-006 2.873e-006 9.05227e-007 
0.0678611 -7.96417 6.35039 -0 -89.0022 -0 0 0 -0 0 0 -0 0 0 -0 -0.0996637 16.9969 -1.50351e-007 -9.28384e-009 -1.00194 -7.8339e-010 -0.099664 3.36414e-007 2.13351e-009 14.9944 -60.0042 -0.00674757 -9.53129 -18.339 -42.4277 14.9982 2.5577e-007 1.27445e-005 -1.96567e-007 -1.19171e-007 8.83222e-008 1.93389e-007 1.07878e-007 -4.10492e-008 -1.90212e-007 -9.6585e-008 -6.22369e-009 -1.96567e-007 -1.19171e-007 8.83222e-008 -0.0146183 -8.87351e-005 -1.66831e-006 -1.85807e-007 -7.39985e-008 -1.00779e-007 -1.96567e-007 -1.19171e-007 8.83222e-008 -0.0187591 -0.00117587 5.84344e-005 -1.90213e-007 -9.65839e-008 -6.23757e-009 -1.96567e-007 -1.19171e-007 8.83222e-008 -0.0122849 -0.00325181 0.000674033 -1.90213e-007 -9.65833e-008 -6.22864e-009 -1.96567e-007 -1.19171e-007 8.83222e-008 1.93389e-007 1.07878e-007 -4.10492e-008 -1.90212e-007 -9.6585e-008 -6.22369e-009 -0.0996653 -4.07006e-006 29.9987 -69.7399 -57.1727 -26.5087 18.2673 9.66981 131.322 -4.395e-007 -2.24387e-009 1.39847e-008 -2.10712e-014 -1.27222e-014 1.27222e-014 -2.24627e-014 0 1.31198e-014 -2.10712e-014 -9.54166e-015 1.35174e-014 -2.10712e-014 -1.27222e-014 1.27222e-014 0.0150527 -9.23509e-005 1.7391e-007 -7.95139e-016 6.36111e-015 3.97569e-016 -2.10712e-014 -1.27222e-014 1.27222e-014 0.0190241 -0.00119103 -6.00568e-005 -9.93923e-016 -3.18055e-015 -3.97569e-016 -2.10712e-014 -1.27222e-014 1.27222e-014 0.0122913 -0.00325748 -0.000678341 -9.93923e-016 -3.18055e-015 7.95139e-016 -2.10712e-014 -1.27222e-014 1.27222e-014 -2.24627e-014 0 1.31198e-014 -2.10712e-014 -9.54166e-015 1.35174e-014 5.55839 -5.19753 0.407769 8.55041e-007 5.44587 -0.327338 6.24025 25.4812 -3.91458 -5.97805e-008 1.42173e-007 1.53137e-006 -14.3615 0.112309 0.0663331 -1.33644e-006 4.26864 0.680302 3.4992 16.579 -0.50998 -1.88431e-006 -8.71502e-008 2.4599e-007 
0.0728807 -13.6686 5.92363 -180 -84.405 -180 -0 -1.59028e-015 -0 0 0 -0 -0 -7.95139e-016 -0 -0.106782 18.256 -3.62858e-007 -0.00773095 -1.11162 0.128262 -0.106783 -2.35718e-006 -1.03642e-009 15.9549 -64.4489 -0.00838972 -11.2792 -18.7736 -45.7232 16.1092 -1.79223e-006 -5.39563e-006 -4.77083e-015 -7.95139e-016 -6.36111e-015 -0 0 6.36111e-015 -1.59028e-015 -7.95139e-016 -0 -4.77083e-015 -7.95139e-016 -6.36111e-015 -0.0146143 -8.89279e-005 -9.7813e-009 -3.18055e-015 1.59028e-015 -3.18055e-015 -4.77083e-015 -7.95139e-016 -6.36111e-015 -0.0187582 -0.00117567 5.70348e-005 -3.67369e-007 1.06489e-006 2.69382e-006 -4.77083e-015 -7.95139e-016 -6.36111e-015 -0.0122254 -0.00323558 0.000671016 1.59028e-015 1.59028e-015 -9.54166e-015 -4.77083e-015 -7.95139e-016 -6.36111e-015 -0 0 6.36111e-015 -1.59028e-015 -7.95139e-016 -0 -0.106784 -3.86441e-006 32.2208 -78.9712 -60.6077 -31.9187 17.7118 12.1949 140.996 1.51299e-007 -5.55158e-008 8.33534e-007 0 0 -1.59028e-015 7.95139e-016 -3.18055e-015 -1.59028e-015 -7.95139e-016 0 -1.59028e-015 0 0 -1.59028e-015 0.0150037 -8.84764e-005 -1.76777e-007 -1.74644e-007 -7.33159e-007 -2.60385e-007 0 0 -1.59028e-015 0.0190103 -0.00119137 -5.96539e-005 7.95139e-016 0 -1.59028e-015 0 0 -1.59028e-015 0.0122594 -0.00324732 -0.000676483 -3.18055e-015 6.36111e-015 -4.77083e-015 0 0 -1.59028e-015 7.95139e-016 -3.18055e-015 -1.59028e-015 -7.95139e-016 0 -1.59028e-015 5.71906 -5.84968 0.446129 4.12352e-007 6.07556 -0.25972 7.07559 27.5148 -4.23196 -1.40181e-006 1.87352e-006 -4.97986e-007 -15.1721 -0.0329897 0.0652522 -2.3891e-006 4.5839 0.655337 3.5269 17.966 -0.557704 -8.46669e-007 6.83234e-009 -4.29716e-007 
0.0703706 -10.8103 6.14709 -180 -87.7014 -180 0 0 -0 -0 -3.97569e-016 -0 0 0 -0 -0.102715 17.6265 -4.21473e-009 -0.0187208 -1.12518 0.311501 -0.102715 -9.68733e-007 2.33248e-009 15.1877 -62.2265 -0.00745648 -10.3338 -18.6118 -43.8886 15.5537 6.28686e-007 7.42836e-006 -7.95139e-016 -7.95139e-016 -6.36111e-015 3.97569e-016 3.97569e-016 -6.36111e-015 -7.95139e-016 -7.95139e-016 -0 -7.95139e-016 -7.95139e-016 -6.36111e-015 -0.0146141 -8.87591e-005 -1.45516e-007 -1.19409e-008 5.78925e-008 -2.40215e-007 -7.95139e-016 -7.95139e-016 -6.36111e-015 -0.0187647 -0.00117672 5.82723e-005 -1.19271e-015 -2.78299e-014 -6.36111e-015 -7.95139e-016 -7.95139e-016 -6.36111e-015 -0.0122631 -0.00324541 0.000684302 -2.20695e-031 -7.95139e-016 -1.59028e-014 -7.95139e-016 -7.95139e-016 -6.36111e-015 3.97569e-016 3.97569e-016 -6.36111e-015 -7.95139e-016 -7.95139e-016 -0 -0.102716 1.59818e-006 31.1098 -74.1976 -58.9274 -29.0651 18.0613 10.94 136.145 -9.66812e-008 2.2412e-008 -4.14734e-007 -7.95139e-016 -6.36111e-015 3.97569e-016 -1.78906e-015 -6.36111e-015 -0 -7.95139e-016 -6.36111e-015 -0 -7.95139e-016 -6.36111e-015 3.97569e-016 0.0149989 -9.09309e-005 2.55123e-007 -1.98785e-016 -6.36111e-015 -0 -7.95139e-016 -6.36111e-015 3.97569e-016 0.0189607 -0.00118819 -6.00729e-005 -1.39149e-015 -6.36111e-015 3.97569e-016 -7.95139e-016 -6.36111e-015 3.97569e-016 0.0122975 -0.00325104 -0.00067727 -1.98785e-016 -3.18055e-015 3.97569e-016 -7.95139e-016 -6.36111e-015 3.97569e-016 -1.78906e-015 -6.36111e-015 -0 -7.95139e-016 -6.36111e-015 -0 5.63031 -5.48106 0.42579 -1.87671e-006 5.68578 -0.161126 6.56043 26.7349 -4.04041 1.59028e-015 -9.54166e-015 1.59028e-015 -14.7611 0.0583767 0.0658607 7.24716e-006 4.38934 0.518506 3.51941 17.2994 -0.535548 1.04038e-006 1.07957e-007 -7.35855e-007 
